<?xml version="1.0" encoding="UTF-8"?>
<svg id="Layer_1" xmlns="http://www.w3.org/2000/svg" version="1.1" viewBox="0 0 265.3 265.3">
  <!-- Generator: Adobe Illustrator 29.8.2, SVG Export Plug-In . SVG Version: 2.1.1 Build 3)  -->
  <defs>
    <style>
      .st0 {
        fill: #fff;
      }
    </style>
  </defs>
  <path class="st0" d="M132.7,265.3C59.5,265.3,0,205.8,0,132.6S59.5,0,132.7,0s132.6,59.5,132.6,132.6-59.5,132.7-132.6,132.7ZM132.7,2.9c-71.6,0-129.8,58.2-129.8,129.7,0,71.6,58.1,129.7,129.8,129.8,71.5,0,129.7-58.2,129.7-129.8,0-71.6-58.1-129.7-129.7-129.7Z"/>
  <path class="st0" d="M44.5,217.3l10.2-10.8,3.8,3.6c3,2.9,3.3,6.9,0,10.4s-7.3,3.3-10.4.4l-3.8-3.6ZM50.1,218.8c1.7,1.6,4.2,1.9,6.4-.4s1.8-4.8.1-6.4l-1.7-1.6-6.5,6.9,1.7,1.6Z"/>
  <path class="st0" d="M61.7,232l8.2-12.4,7.6,5-1.5,2.3-5.2-3.4-1.9,2.8,4.8,3.1-1.4,2.1-4.7-3.1-1.9,2.9,5.2,3.5-1.5,2.3-7.6-5.1Z"/>
  <path class="st0" d="M83.3,238.2l-2.3,5.1-2.6-1.2,6.1-13.6,5,2.2c2.4.9,3.6,3.6,2.6,6-.9,2.4-3.6,3.6-6,2.6-.1,0-.3-.1-.4-.2l-2.4-1ZM86.4,236.8c1.1.5,2.3.1,2.9-.9.5-1.1.1-2.3-.9-2.9,0,0-.1,0-.2,0l-2-.9-1.8,3.9,2,.9Z"/>
  <path class="st0" d="M98.3,244.4l2.4-9.3,2.8.7-2.3,9.1c-.5,1.9.3,3.1,1.9,3.6s3-.3,3.4-2.2l2.3-9.1,2.8.7-2.4,9.3c-.8,3-3.8,4.8-6.8,4s-4.8-3.8-4-6.8h0Z"/>
  <path class="st0" d="M118.5,253.9l1.5-14.8,2.9.3-1.5,14.8-2.9-.3Z"/>
  <path class="st0" d="M138.9,244c-.3-1.3-1.4-2.1-2.7-2-1.1,0-2.1.8-2.2,1.9,0,0,0,0,0,0,0,.9.8,1.6,1.6,1.6l2,.3c2.7.4,4.1,2.1,4.2,4.2,0,2.3-1.7,4.7-5.1,4.8-3.9.1-5.7-2.4-6-4.5l2.6-.8c.1,1.6,1.6,2.8,3.2,2.7,0,0,0,0,.1,0,1.5,0,2.3-.9,2.3-1.9,0-.9-.7-1.5-1.8-1.7l-1.9-.4c-2.3-.4-3.9-1.9-4-4.1,0-2.7,2.2-4.8,4.9-4.8,0,0,0,0,0,0,3.5-.1,5,2,5.3,3.7l-2.5.9Z"/>
  <path class="st0" d="M166.1,250.1l-2.7-9.4-3.3.9-.6-2c1.8-.3,3-1.9,3-3.7l2.5-.7,4,14.1-2.9.8Z"/>
  <path class="st0" d="M178.7,242.6c.9,0,1.8-.1,2.6-.5,2.2-.8,3.3-3.2,2.5-5.4,0-.1,0-.2-.1-.3-.3,1.3-1.1,2.3-2.4,2.8-2.4,1.2-5.3.3-6.5-2.1,0,0,0-.2-.1-.3-1.3-2.7,0-5.7,2.8-7s6.1-.4,8.1,3.9c2.2,4.8,1.2,8.7-3.3,10.8-1,.5-2.2.7-3.4.7l-.4-2.6ZM178.6,232.3c-1.2.6-1.7,2-1.1,3.2.6,1.2,2,1.7,3.2,1.1,1.2-.6,1.7-2,1.1-3.2-.5-1.2-1.9-1.8-3.1-1.2,0,0,0,0-.1,0Z"/>
  <path class="st0" d="M199.2,220.4c-1.1,4.5-.3,9.2,2.1,13.2l-2.6,1.8c-2.4-3.9-3.2-8.5-2.3-13l-6.1,4.2-1.5-2.2,9-6.2,1.5,2.2Z"/>
  <path class="st0" d="M211.6,219.4c1,1,2.6,1,3.6,0,1-.9,1-2.4.1-3.4-.9-1-2.4-1-3.4-.1,0,0,0,0,0,0-.6.6-1,1.4-.9,2.2-.3.1-2.4,1.1-2.7,1.2l-4-6.6,5.9-5.6,1.9,1.9-4.4,4.2,1.7,2.8c.1-.9.5-1.8,1.2-2.4,1.7-1.9,4.6-2,6.5-.4.2.2.3.3.5.5,1.9,2,2,5.1-.5,7.5-1.9,2-4.9,2.2-7.1.5l1.6-2.5Z"/>
  <path class="st0" d="M28.2,187.4c-.9-1.6-.3-3.7,1.3-4.6,1.6-.9,3.7-.3,4.6,1.3.9,1.6.3,3.7-1.3,4.6,0,0,0,0,0,0-1.6.9-3.7.3-4.6-1.3Z"/>
  <path class="st0" d="M27.7,155.4l-14.6,2.6-.5-2.8,11.9-2.1-1.1-6.4,2.7-.5,1.6,9.2Z"/>
  <path class="st0" d="M25.4,137.2h-14.9v-9.1h2.7v6.3h3.4v-5.7h2.6v5.7h3.4v-6.3h2.7v9.1Z"/>
  <path class="st0" d="M24.2,100.7l-.4,1.4,5.5,1.6-.8,2.8-14.3-4.3,1.6-5.5c.6-2.4,3-3.8,5.3-3.3.1,0,.3,0,.4.1,1.9.5,3.2,2.2,3.2,4.2l6.7-1.3-.9,3-6.3,1.2ZM22.1,99.2c.3-1.1-.3-2.3-1.4-2.6-1.1-.3-2.3.3-2.6,1.4h0l-.6,2.2,4,1.2.6-2.2Z"/>
  <path class="st0" d="M35,87.9l-13.2-6.7,4.1-8.1,2.4,1.2-2.9,5.6,3,1.5,2.6-5.1,2.3,1.1-2.6,5.1,3.1,1.6,2.8-5.6,2.4,1.2-4.1,8.2Z"/>
  <path class="st0" d="M44.3,71.6l-11.9-8.9,5.5-7.4,2.2,1.7-3.8,5.1,2.9,2.2,3.4-4.5,2.1,1.6-3.4,4.5,4.6,3.5-1.7,2.3Z"/>
  <path class="st0" d="M56,57.4l-10.2-10.8,2.1-1.9,8.3,8.8,4.7-4.5,1.9,2-6.8,6.4Z"/>
  <path class="st0" d="M70,45.5l-8.2-12.4,7.6-5,1.5,2.3-5.2,3.5,1.9,2.8,4.8-3.2,1.4,2.2-4.8,3.1,1.9,2.9,5.3-3.5,1.5,2.3-7.6,5Z"/>
  <path class="st0" d="M89.7,26.3l7.3,5-3.2,1.3-4.9-3.5-.9,6-3.1,1.3,1.5-8.7-7.2-5,3.1-1.3,4.9,3.5.9-6,3.1-1.3-1.5,8.8Z"/>
  <path class="st0" d="M105.5,28.7l-3.2-14.5,8.9-2,.6,2.7-6.1,1.4.7,3.3,5.6-1.2.6,2.5-5.6,1.2.7,3.4,6.1-1.4.6,2.7-8.9,2Z"/>
  <path class="st0" d="M152.5,27.1l3.3-14.5,2.8.6-2.7,11.8,6.4,1.5-.6,2.7-9.1-2.1Z"/>
  <path class="st0" d="M182.4,20.7c3.8,1.6,5.5,6,3.9,9.8,0,.1-.1.2-.2.4-1.6,3.8-6,5.6-9.8,4.1-3.8-1.6-5.6-6-4.1-9.8,0-.1.1-.3.2-.4,1.5-3.8,5.8-5.7,9.6-4.2.1,0,.3.1.4.2ZM177.3,32.3c2.1.9,4.8.4,6.2-2.7s-.1-5.5-2.2-6.4-4.8-.4-6.2,2.7,0,5.5,2.1,6.4Z"/>
  <path class="st0" d="M201.3,50.1l.9-1.5c-1.6.5-3.4,0-4.6-1-3.1-2.4-4-6.8-1.1-10.6,2.3-3.4,7-4.2,10.3-1.9.1,0,.2.2.3.2,2.5,1.7,3.5,4.8,2.5,7.7l-2.8-.9c.7-1.7,0-3.6-1.4-4.7-1.8-1.3-4.6-1.6-6.7,1.2s-1.4,5.4.6,6.8c1.4,1.2,3.5,1.3,4.9,0l-3.7-2.8,1.5-2,5.8,4.4-4.7,6.2-1.8-1.4Z"/>
  <path class="st0" d="M211.4,59.7l11.3-9.7,5.9,6.9-2.1,1.8-4.1-4.8-2.6,2.2,3.7,4.4-2,1.7-3.7-4.3-2.6,2.2,4.1,4.8-2.1,1.8-5.9-6.9Z"/>
  <path class="st0" d="M230.4,88l9.3-4.8-11.2,1.1-1.1-2.1,7.2-8.5-9.2,4.8-1.2-2.4,13.2-6.9,1.7,3.3-7.5,8.8,11.5-1.2,1.8,3.4-13.2,6.9-1.3-2.5Z"/>
  <path class="st0" d="M235.6,101.9l14.4-3.7,2.3,8.8-2.6.7-1.6-6.1-3.3.8,1.4,5.5-2.5.6-1.4-5.5-3.3.8,1.6,6.1-2.6.7-2.2-8.8Z"/>
  <path class="st0" d="M240,131.7l10.3-7-10.5.4v-2.8c-.1,0,14.7-.6,14.7-.6v3.5c.1,0-9.5,6.4-9.5,6.4l9.8-.4v2.8c.1,0-14.8.6-14.8.6v-3Z"/>
  <path class="st0" d="M250,154.9l-11.9-2.1.5-2.8,11.9,2.1.8-4.5,2.7.5-2.1,11.9-2.7-.5.8-4.5Z"/>
  <path class="st0" d="M236.9,187.5c-.9,1.7-2.9,2.3-4.6,1.5-1.7-.9-2.3-2.9-1.5-4.6s2.9-2.3,4.6-1.5c0,0,0,0,0,0,1.6.9,2.3,2.9,1.4,4.6Z"/>
  <path class="st0" d="M119.4,55.3h7.5c4,0,5.8,1.8,5.8,6.4v16.8c0,4.3-1.5,6.6-5.8,6.6h-7.6v-29.8ZM124.7,80.1h1c1.2,0,1.6-.6,1.6-2.1v-16c0-1.4-.4-2-1.4-2h-1.2v20.1Z"/>
  <path class="st0" d="M146.7,55.3v5.2h-5.8v6.5h4.6v5.4h-4.6v7.3h6.1v5.4h-11.4v-29.7h11.1Z"/>
  <path class="st0" d="M63.8,107.7v11.9h-5.3v-29.7h7.6c4.5,0,5.5,2.2,5.5,5.9v6c0,3.7-1.5,6-5.2,6h-2.5ZM63.8,102.8h1c1.2,0,1.4-.8,1.4-1.7v-5c0-1.1-.1-1.8-1.4-1.8h-1v8.4Z"/>
  <path class="st0" d="M80.3,114.6h-3.2l-.5,5h-4.7l3.8-29.7h6.3l4,29.7h-5.1l-.6-5ZM77.6,109.5h2.2l-1.1-10.2-1,10.2Z"/>
  <path class="st0" d="M93.3,119.6h-5.3v-29.7h8.4c3.2,0,4.9,1.8,4.9,5v4.8c.1,1.7-.8,3.3-2.4,4,1.4.6,2.3,2,2.3,3.5v10.1c0,.8,0,1.5.4,2.2v.2h-5.3c-.4-.7-.6-1.5-.5-2.3v-8.7c0-1.4-.3-1.8-1.4-1.8h-1.1v12.7ZM93.3,102h1c1.1,0,1.5-.4,1.5-1.8v-4c0-1.3-.2-1.7-1.3-1.7h-1.2v7.5Z"/>
  <path class="st0" d="M116.1,89.9v5.2h-3.8v24.5h-5.3v-24.5h-3.8v-5.2h12.9Z"/>
  <path class="st0" d="M123.8,119.6h-5.3v-29.7h5.3v29.7Z"/>
  <path class="st0" d="M134.7,106.5h5.3v6.7c0,3.5-1.5,6.9-6.2,6.9h-1.1c-5.1,0-6.3-3.3-6.3-7v-16.9c0-3.6,1.6-6.8,6.3-6.8h1.1c5.1,0,6.2,3.2,6.2,6.6v5h-5.3v-4.8c0-1.1-.4-1.7-1.4-1.7s-1.3.6-1.3,1.7v16.8c0,1.2.4,1.8,1.4,1.8s1.3-.7,1.3-1.8v-6.5Z"/>
  <path class="st0" d="M142.7,89.9h5.5v23c0,1.2.4,1.8,1.3,1.8s1.3-.6,1.3-1.8v-23h5.5v22.8c0,5-2.3,7.3-6.1,7.3h-1.3c-3.9,0-6.1-2.4-6.1-7.3v-22.8Z"/>
  <path class="st0" d="M164.4,89.9v24.4h5.6v5.3h-10.9v-29.7h5.3Z"/>
  <path class="st0" d="M177.7,119.6h-5.3v-29.7h5.3v29.7Z"/>
  <path class="st0" d="M191.7,89.9v5.2h-5.8v6.5h4.6v5.3h-4.6v7.3h6.1v5.3h-11.4v-29.7h11.1Z"/>
  <path class="st0" d="M199.7,119.6h-5.3v-29.7h8.4c3.2,0,4.9,1.8,4.9,5v4.8c.1,1.7-.8,3.3-2.4,4,1.4.6,2.4,2,2.3,3.5v10.1c0,.8,0,1.5.4,2.2v.2h-5.3c-.4-.7-.6-1.5-.5-2.3v-8.7c0-1.4-.3-1.8-1.4-1.8h-1.1v12.7ZM199.7,102h1c1.1,0,1.5-.4,1.5-1.8v-4c0-1.3-.2-1.7-1.3-1.7h-1.2v7.5Z"/>
  <path class="st0" d="M134.3,149.1h-3.2l-.5,5h-4.7l3.8-29.7h6.3l4,29.7h-5.2l-.5-5ZM131.6,144h2.1l-1.1-10.2-1,10.2Z"/>
  <path class="st0" d="M63.8,176.7v11.9h-5.3v-29.7h7.6c4.5,0,5.5,2.2,5.5,5.9v5.9c0,3.7-1.5,6-5.2,6h-2.5ZM63.8,171.9h1c1.2,0,1.4-.8,1.4-1.7v-5c0-1.1-.1-1.8-1.4-1.8h-1v8.4Z"/>
  <path class="st0" d="M80.3,183.6h-3.2l-.5,5h-4.7l3.8-29.7h6.3l4,29.7h-5.1l-.6-5ZM77.6,178.5h2.2l-1.1-10.2-1,10.2Z"/>
  <path class="st0" d="M93.3,188.6h-5.3v-29.7h8.4c3.2,0,4.9,1.8,4.9,5v4.8c.1,1.7-.8,3.3-2.4,4,1.4.6,2.3,2,2.3,3.5v10.1c0,.8,0,1.5.4,2.2v.2h-5.3c-.4-.7-.6-1.5-.5-2.3v-8.7c0-1.4-.3-1.8-1.4-1.8h-1.1v12.7ZM93.3,171h1c1.1,0,1.5-.4,1.5-1.8v-4c0-1.3-.2-1.7-1.3-1.7h-1.2v7.5Z"/>
  <path class="st0" d="M116.1,158.9v5.2h-3.8v24.5h-5.3v-24.5h-3.8v-5.2h12.9Z"/>
  <path class="st0" d="M123.8,188.6h-5.3v-29.7h5.3v29.7Z"/>
  <path class="st0" d="M134.7,175.5h5.3v6.7c0,3.5-1.5,6.9-6.2,6.9h-1.1c-5.1,0-6.3-3.3-6.3-7v-16.8c0-3.6,1.6-6.8,6.3-6.8h1.1c5.1,0,6.2,3.2,6.2,6.6v5h-5.3v-4.8c0-1.1-.4-1.7-1.4-1.7s-1.3.6-1.3,1.7v16.8c0,1.2.4,1.8,1.4,1.8s1.3-.7,1.3-1.8v-6.6Z"/>
  <path class="st0" d="M142.7,158.9h5.5v23c0,1.2.4,1.8,1.3,1.8s1.3-.6,1.3-1.8v-23h5.5v22.8c0,5-2.3,7.4-6.1,7.4h-1.3c-3.9,0-6.1-2.4-6.1-7.4v-22.8Z"/>
  <path class="st0" d="M164.4,158.9v24.4h5.6v5.4h-10.9v-29.7h5.3Z"/>
  <path class="st0" d="M177.7,188.6h-5.3v-29.7h5.3v29.7Z"/>
  <path class="st0" d="M191.7,158.9v5.2h-5.8v6.5h4.6v5.4h-4.6v7.3h6.1v5.4h-11.4v-29.7h11.1Z"/>
  <path class="st0" d="M199.7,188.6h-5.3v-29.7h8.4c3.2,0,4.9,1.8,4.9,5v4.8c.1,1.7-.8,3.3-2.4,4,1.4.6,2.4,2,2.3,3.5v10.1c0,.8,0,1.5.4,2.2v.2h-5.3c-.4-.7-.6-1.5-.5-2.3v-8.7c0-1.4-.3-1.8-1.4-1.8h-1.1v12.7ZM199.7,171h1c1.1,0,1.5-.4,1.5-1.8v-4c0-1.3-.2-1.7-1.3-1.7h-1.2v7.5Z"/>
</svg>