<?xml version="1.0" encoding="UTF-8"?>
<svg id="Calque_1" xmlns="http://www.w3.org/2000/svg" version="1.1" viewBox="0 0 450 200">
  <!-- Generator: Adobe Illustrator 29.8.2, SVG Export Plug-In . SVG Version: 2.1.1 Build 3)  -->
  <defs>
    <style>
      .st0 {
        fill: #fff;
      }
    </style>
  </defs>
  <path class="st0" d="M281.5,113c3.6.4,10.4,2.4,13.4,4.6,8.9,6.3,10.1,24.7,2.1,32s-4.9,2.3-5.1,2.5c-1,1.3,12.4,26.6,13,31h-16c-2.7-6.4-6.4-21.3-10.1-26.4s-3.4-1.6-5.9-1.6v28h-14v-70c7.2.6,15.4-.8,22.5,0ZM273,143c20.7,4.2,20.5-21.6,0-18v18Z"/>
  <path class="st0" d="M116.8,112.3c12.7-1.2,23.5,5,25.1,18.3.9,7.8,1,33.8-1.2,40.6-5.8,18-36.3,17.7-42.2-.2-2.7-8.2-2.5-39.3.7-47.3s10.3-10.8,17.6-11.4ZM113.3,169.7c4.2,4.4,13.3,2.5,14.5-4.5s1-26.6.1-32.7c-1.4-9.9-14.1-10-15.7-2.9s-.8,28.4-.3,34.8.1,4,1.3,5.2Z"/>
  <path class="st0" d="M167,113v53.5c0,6.8,18,8.1,18-3v-50.5h14v53.5c0,5.5-5.1,12.4-9.9,15.1-8.4,4.6-25.6,3.9-32.1-4-.9-1-4-7.2-4-8v-56.5h14Z"/>
  <polygon class="st0" points="248 113 248 126 225 126 225 141 242 141 242 154 225 154 225 171 249 171 249 183 211 183 211 113 248 113"/>
  <g>
    <path class="st0" d="M424.5,114c14.2,2.2,19.3,17.4,14.8,29.8s-8.3,8.2-8.4,8.8c-.8,4.7,12.1,24.8,12.1,31.4h-15c-1.6-3.4-9.9-27.1-11.2-27.8s-4.2.1-5.8-.2v28h-14v-70c8.4.9,19.4-1.3,27.5,0ZM411,144c6.7.1,14.3.8,15.1-7.4,1.1-11.8-5.5-10.9-15.1-10.6v18Z"/>
    <polygon class="st0" points="390 114 390 126 369 126 369 141 385 141 385 154 369 154 369 184 354 184 354 114 390 114"/>
  </g>
  <polygon class="st0" points="70 113 70 171 91 171 91 183 56 183 56 113 70 113"/>
  <circle class="st0" cx="323.8" cy="148.3" r="13.3"/>
  <rect class="st0" x="9" y="142" width="31" height="14"/>
  <g>
    <path class="st0" d="M444,102h-17.5l-14-33c-1.7-1.8-5.2-.8-7.5-1v34h-17V17h32.5c.4,0,6.6,2.1,7.5,2.5,12.6,5.6,15.8,22.1,11,34s-6.7,7.4-10.1,11.9l15,36.5ZM405,53c9.4.8,19.4.8,19-11.5s-10.3-11.1-19-10.5v22Z"/>
    <path class="st0" d="M160,17v33h21V17h17v85h-15.5c-.1,0-1.5-1.4-1.5-1.5v-35.5h-21v35.5c0,.1-1.4,1.5-1.5,1.5h-15c-.1,0-1.5-1.4-1.5-1.5V17h18Z"/>
    <path class="st0" d="M6,102L26.5,18c1.7-2.3,18.1-.3,21.9-1l20.6,85.1h-15.5c-2.2,0-3.5-15.2-5.4-17.6-1.2-.9-20.6-.8-21.2.1-1.8,5.7-2.4,12.4-5.4,17.4H6ZM45,69l-7.5-31-7.5,31h15Z"/>
    <path class="st0" d="M129,45h-17c-.7,0,2.3-10.4-4.3-13.2-9.5-4.1-15,1.6-15.8,10.7s-.8,25.4,0,34,4.5,13,13,11.1c10.9-2.4,4.9-17.6,8.4-17.6h15.5c.3,9,.6,17.7-5.6,24.9-10.8,12.7-39.5,10.7-45.9-5.9-3.7-9.5-3.8-45.2-1.2-55.2,4.1-15.8,16.4-19.1,31.2-17.8,15.8,1.4,22.7,14.3,21.5,29Z"/>
    <polygon class="st0" points="258 17 258 32 230 32 230 50 251 50 251 65 230 65 230 87 259 87 259 102 213 102 213 17 258 17"/>
    <polygon class="st0" points="375 17 375 32 347 32 347 50 368 50 368 65 347 65 347 87 376 87 376 102 330 102 330 17 375 17"/>
    <polygon class="st0" points="321 17 321 32 302 32 302 102 285 102 285 32 266 32 266 17 321 17"/>
  </g>
</svg>