<?xml version="1.0" encoding="UTF-8"?>
<svg id="Logo" xmlns="http://www.w3.org/2000/svg" version="1.1" viewBox="0 0 140.8 43.1">
  <!-- Generator: Adobe Illustrator 29.8.2, SVG Export Plug-In . SVG Version: 2.1.1 Build 3)  -->
  <defs>
    <style>
      .st0 {
        fill: #fff;
      }
    </style>
  </defs>
  <g id="Groupe_1">
    <path class="st0" d="M32.4.7H3.2C1.4.7,0,2.2,0,3.9v37.6c0,.9.7,1.6,1.6,1.6s.7-.1,1-.3l8.1-6.2h21.8c1.8,0,3.2-1.4,3.2-3.2V3.9c0-1.8-1.4-3.2-3.2-3.2ZM30.4,28c0,1.3-1.1,2.4-2.4,2.4h-15.5c-1.3,0-2.4-1.1-2.4-2.4v-8c0-.4.2-.7.4-1l6.4-6.1c.5-.5,1.3-.5,1.8,0l2.2,2.1v-1.2h1.9v3l2.2,2.1c.3.2.4.6.4,1v4.8h-2.7v-4.3l-5-4.8-5,4.8v7.2h15V9.6H7.9v20.8h-2.7V9.3c0-1.3,1.1-2.4,2.4-2.4h20.4c1.3,0,2.4,1.1,2.4,2.4v18.7Z"/>
    <path id="Tracé_205" class="st0" d="M47.6,1.6h-3.4c-1.8,0-2.5.8-2.5,2.5v11.1h2.8v-4.5h3.2c3.3,0,4.6-1.8,4.6-4.5s-1.3-4.6-4.6-4.6ZM47.6,8.1h-3.2v-3.2c0-.4.2-.6.6-.6h2.5c1.4,0,1.8.7,1.8,2s-.5,1.9-1.8,1.9Z"/>
    <path id="Tracé_206" class="st0" d="M56.1,15.3h-2.7v-6.9c0-2.5,1.5-3.8,4.4-3.8.4,0,.9,0,1.3.2v2.6c-.4-.1-.9-.2-1.3-.2-1.4,0-1.6.5-1.6,1.4v6.7Z"/>
    <path id="Tracé_207" class="st0" d="M65,4.5c-3.3,0-5,1.6-5,4.6v1.7c0,3.1,1.6,4.7,5,4.7s5-1.7,5-4.7v-1.7c0-3.1-1.5-4.6-5-4.6ZM67.2,10.9c0,1.4-.4,2.1-2.2,2.1s-2.3-.7-2.3-2.1v-1.7c0-1.3.4-2.1,2.3-2.1s2.2.7,2.2,2.1v1.7Z"/>
    <path id="Tracé_208" class="st0" d="M76.8,4.5c-2.8,0-5,1.3-5,4.6v10.3h2.7v-5.1c.7.9,1.8,1.3,2.9,1.2,2.9,0,4.4-1.7,4.4-4.7v-1.7c0-3.3-1.9-4.6-5-4.6ZM79.1,10.9c0,1.4-.4,2.1-2.2,2.1s-2.3-.7-2.3-2.1v-1.7c0-1.3.4-2.1,2.3-2.1s2.2.7,2.2,2.1v1.7Z"/>
    <path id="Tracé_209" class="st0" d="M86.4,15.3h-2.7v-6.9c0-2.5,1.5-3.8,4.4-3.8.4,0,.9,0,1.3.2v2.6c-.4-.1-.9-.2-1.3-.2-1.4,0-1.6.5-1.6,1.4v6.7Z"/>
    <path id="Tracé_210" class="st0" d="M92.4,0c-.9,0-1.6.7-1.6,1.6,0,.9.7,1.6,1.6,1.6.9,0,1.7-.7,1.7-1.6,0-.9-.7-1.6-1.6-1.6ZM91,4.8v10.5h2.7V4.8h-2.7Z"/>
    <path id="Tracé_211" class="st0" d="M104.8,11c.2-.6.2-1.3.2-2,0-3-1.5-4.5-4.6-4.5s-4.9,2-4.9,4.7v1.7c0,3.2,1.8,4.6,5.5,4.6,1.2,0,2.5-.2,3.7-.6v-2.6c-1.2.4-2.4.6-3.7.6-1.9,0-2.7-.5-2.7-1.6v-.3h6.5ZM98.3,8.5c0-1,.7-1.6,2-1.6s2.1.5,2.1,1.6v.3h-4.1v-.3Z"/>
    <path id="Tracé_212" class="st0" d="M105.9,5.2l1.9-.4.4-2.7h2.3v2.7h3.6v2.6h-3.6v4.1c0,1,.5,1.4,1.3,1.4.9,0,1.8-.1,2.6-.4v2.6c-.8.3-1.7.5-2.6.4-2.3,0-4-.9-4-4v-4.1h-1.9v-2.2Z"/>
    <path id="Tracé_213" class="st0" d="M124.9,11c.2-.6.2-1.3.2-2,0-3-1.5-4.5-4.6-4.5s-4.9,2-4.9,4.7v1.7c0,3.2,1.8,4.6,5.5,4.6,1.2,0,2.5-.2,3.7-.6v-2.6c-1.2.4-2.4.6-3.7.6-1.9,0-2.7-.5-2.7-1.6v-.3h6.5ZM118.4,8.8v-.3c0-1,.7-1.6,2.1-1.6s2.1.5,2.1,1.6v.3h-4.1Z"/>
    <path id="Tracé_214" class="st0" d="M126.5,12.3c1.3.5,2.6.7,4,.7,1.2,0,1.6-.1,1.6-.6s-.3-.5-1.3-1l-1.9-.8c-1.3-.6-2.2-1.3-2.2-3s1.2-3.1,4.3-3.1c1.2,0,2.3.2,3.4.6v2.6c-1.1-.5-2.2-.7-3.4-.6-1.3,0-1.6.2-1.6.6s.2.5.9.7l2.2.9c1.6.6,2.4,1.4,2.4,3.1s-1.3,3.2-4.5,3.2c-1.3,0-2.6-.2-3.8-.6v-2.6Z"/>
    <rect id="Rectangle_147652" class="st0" x="136.2" y="7.3" width="4.6" height="2.3"/>
    <path id="Tracé_215" class="st0" d="M46.6,20.6c-2.8,0-5,1.3-5,4.6v10.3h2.7v-5.1c.7.8,1.8,1.3,2.9,1.2,2.9,0,4.4-1.7,4.4-4.7v-1.7c0-3.3-1.9-4.6-5-4.6ZM48.9,26.9c0,1.3-.4,2.1-2.2,2.1s-2.3-.7-2.3-2.1v-1.7c0-1.3.4-2.1,2.3-2.1s2.2.7,2.2,2.1v1.7Z"/>
    <path id="Tracé_216" class="st0" d="M55.4,31.3h-2.7v-6.9c0-2.5,1.5-3.8,4.4-3.8.4,0,.9,0,1.3.2v2.6c-.4-.1-.9-.2-1.3-.2-1.4,0-1.6.5-1.6,1.4v6.7Z"/>
    <path id="Tracé_217" class="st0" d="M60.5,16c-.9,0-1.6.7-1.6,1.6,0,.9.7,1.6,1.6,1.6s1.6-.7,1.6-1.6-.7-1.6-1.6-1.6ZM59.1,20.8v10.5h2.7v-10.5h-2.7Z"/>
    <path id="Tracé_218" class="st0" d="M67.1,28.3c.2.8.4.9.9.9s.7,0,.9-.9l1.6-7.5h2.8l-1.8,7.8c-.4,1.8-.9,2.9-3.5,2.9s-3.1-1.1-3.5-2.9l-1.8-7.8h2.8l1.6,7.5Z"/>
    <path id="Tracé_219" class="st0" d="M82.5,27.1c.2-.6.2-1.3.2-2,0-3-1.5-4.5-4.6-4.5s-4.9,2-4.9,4.7v1.7c0,3.2,1.8,4.6,5.5,4.6,1.2,0,2.5-.2,3.7-.6v-2.6c-1.2.4-2.4.6-3.6.6-2,0-2.8-.5-2.8-1.6v-.3h6.5ZM76,24.5c0-1,.7-1.6,2-1.6s2.1.6,2.1,1.6v.3h-4.1v-.3Z"/>
    <path id="Tracé_220" class="st0" d="M92.6,27.1c.2-.6.2-1.3.2-2,0-3-1.5-4.5-4.6-4.5s-4.9,2-4.9,4.7v1.7c0,3.2,1.8,4.6,5.5,4.6,1.2,0,2.5-.2,3.7-.6v-2.6c-1.2.4-2.4.6-3.6.6-2,0-2.8-.5-2.8-1.6v-.3h6.5ZM86.1,24.5c0-1,.7-1.6,2-1.6s2.1.6,2.1,1.6v.3h-4.1v-.3Z"/>
    <path id="Tracé_221" class="st0" d="M93.3,28.3c1.3.5,2.6.7,4,.7,1.2,0,1.6-.1,1.6-.6s-.3-.5-1.3-1l-1.9-.8c-1.3-.6-2.2-1.3-2.2-3s1.2-3.1,4.3-3.1c1.2,0,2.3.2,3.4.6v2.6c-1.1-.5-2.2-.7-3.4-.7-1.3,0-1.5.2-1.5.6s.2.5.9.7l2.2.9c1.6.6,2.4,1.4,2.4,3.1s-1.3,3.2-4.5,3.2c-1.3,0-2.6-.2-3.8-.6v-2.6Z"/>
    <path id="Tracé_222" class="st0" d="M104,28.3c.9,0,1.6.7,1.6,1.6s-.7,1.6-1.6,1.6c-.9,0-1.6-.7-1.6-1.6,0-.9.7-1.6,1.6-1.6h0Z"/>
    <path id="Tracé_223" class="st0" d="M106.5,25c0-2.7,1.7-4.5,5-4.5.8,0,1.7.2,2.5.5v2.6c-.8-.3-1.6-.5-2.4-.5-1.6,0-2.3.4-2.3,1.9v1.9c0,1.5.8,2,2.5,2,.8,0,1.7-.2,2.4-.4v2.6c-.8.3-1.7.4-2.6.5-3.6,0-5.1-1.6-5.1-4.5v-2Z"/>
    <path id="Tracé_224" class="st0" d="M119.7,20.6c-3.3,0-5,1.7-5,4.7v1.7c0,3.1,1.6,4.7,5,4.7s5-1.7,5-4.7v-1.7c0-3.1-1.5-4.7-5-4.7ZM122,26.9c0,1.3-.4,2.1-2.2,2.1s-2.3-.7-2.3-2.1v-1.7c0-1.3.4-2.1,2.3-2.1s2.2.7,2.2,2.1v1.7Z"/>
    <path id="Tracé_225" class="st0" d="M128.4,31.3h-2.7v-6.5c0-2.7,1.6-4.2,4.5-4.2,1.2-.1,2.4.4,3.1,1.3.7-.9,1.9-1.4,3.1-1.3,3.1,0,4.4,1.4,4.4,4.2v6.5h-2.7v-6.5c0-1.1-.3-1.7-1.7-1.7s-1.8.6-1.8,1.7v6.5h-2.7v-6.5c0-1.1-.3-1.7-1.7-1.7s-1.7.6-1.7,1.7v6.5Z"/>
  </g>
</svg>