<?xml version="1.0" encoding="UTF-8"?>
<svg id="Calque_1" xmlns="http://www.w3.org/2000/svg" version="1.1" viewBox="0 0 600 309">
  <!-- Generator: Adobe Illustrator 29.8.2, SVG Export Plug-In . SVG Version: 2.1.1 Build 3)  -->
  <defs>
    <style>
      .st0 {
        fill: #fff;
      }
    </style>
  </defs>
  <path class="st0" d="M74.5,227.4v23.9H6v-23.9h68.5Z"/>
  <g>
    <path class="st0" d="M82.1,109.7v28.5H6.3V8.8h29.6v100.9s46.2,0,46.2,0Z"/>
    <path class="st0" d="M92.6,73.5c0-38.1,30.1-67.3,67.3-67.3s67.3,29.2,67.3,67.3-30.1,67.3-67.3,67.3-67.3-29.3-67.3-67.3ZM197.6,73.5c0-23.1-16.6-38.4-37.7-38.4s-37.7,15.3-37.7,38.4,16.6,38.4,37.7,38.4,37.7-15.3,37.7-38.4Z"/>
    <path class="st0" d="M378.5,77.2c0,39.6-27.5,63.6-63.8,63.6s-69.9-29.9-69.9-67.1S274.6,6.2,312.6,6.2s45.7,12.2,56.6,29.6l-25.1,14.4c-5.4-8.5-17-15.2-31.6-15.2-21.8,0-38.1,16.1-38.1,38.8s15.5,38.1,40.7,38.1,28.5-7.6,33.1-20h-34.6v-25.8h64.9v11.1h0Z"/>
    <path class="st0" d="M435.3,8.8v129.4h-29.6V8.8h29.6Z"/>
    <path class="st0" d="M462.4,73.5c0-38.1,28.3-67.3,67.3-67.3s44.2,11.6,55.4,29.9l-25.5,14.8c-5.7-10-16.8-15.9-29.9-15.9-22.9,0-37.7,15.4-37.7,38.5s14.8,38.4,37.7,38.4,24.4-5.9,29.9-15.9l25.5,14.8c-11.1,18.3-31.8,29.9-55.4,29.9-39,0-67.3-29.2-67.3-67.2Z"/>
  </g>
  <g>
    <path class="st0" d="M124.7,171.4v129.4h-29.6v-129.4h29.6Z"/>
    <path class="st0" d="M281.3,300.8h-29.6v-75.2l-33.5,54.9h-3.3l-33.5-54.9v75.2h-29.6v-129.4h29.6l35.1,57.5,35.1-57.5h29.6v129.4h.1Z"/>
    <path class="st0" d="M437.8,300.8h-29.6v-75.2l-33.5,54.9h-3.3l-33.4-54.9v75.2h-29.6v-129.4h29.6l35.1,57.5,35.1-57.5h29.6v129.4h0Z"/>
    <path class="st0" d="M459.4,236.1c0-38.1,30.1-67.3,67.3-67.3s67.3,29.2,67.3,67.3-30.1,67.3-67.3,67.3c-37.1,0-67.3-29.2-67.3-67.3ZM564.4,236.1c0-23.1-16.6-38.4-37.7-38.4s-37.7,15.3-37.7,38.4,16.6,38.4,37.7,38.4c21.1.1,37.7-15.3,37.7-38.4Z"/>
  </g>
</svg>