<?xml version="1.0" encoding="UTF-8"?>
<svg id="Layer_1" xmlns="http://www.w3.org/2000/svg" xmlns:x="ns_extend;" version="1.1" viewBox="0 0 250.7 48">
  <!-- Generator: Adobe Illustrator 29.8.2, SVG Export Plug-In . SVG Version: 2.1.1 Build 3)  -->
  <defs>
    <style>
      .st0 {
        fill: #fff;
      }
    </style>
  </defs>
  <path class="st0" d="M62.5,47.1c0,.5.4.9.9.9h46.8c.5,0,.9-.4.9-.9v-10c0-.5-.4-.9-.9-.9h-31.3c-.5,0-.9-.4-.9-.9v-5c0-.5.4-.9.9-.9h27.5c.5,0,.9-.4.9-.9v-8.9c0-.5-.4-.9-.9-.9h-27.5c-.5,0-.9-.4-.9-.9v-4.9c0-.5.4-.9.9-.9h31.2c.5,0,.9-.4.9-.9V1.1c0-.5-.4-.9-.9-.9h-46.7c-.5,0-.9.4-.9.9v46Z"/>
  <path class="st0" d="M173,47.1c0,.5.4.9.9.9h13.7c.5,0,.9-.4.9-.9V.9C188.5.4,188.1,0,187.6,0h-13.7c-.5,0-.9.4-.9.9v46.2Z"/>
  <path class="st0" d="M195.2,47.1c0,.5.4.9.9.9h13.7c.5,0,.9-.4.9-.9v-11.7c0-.5.4-.9.9-.9h18c4.2,0,5.4,1.3,5.4,5.5v7.1c0,.5.4.9.9.9h13.7c.5,0,.9-.4.9-.9v-9.6c0-5-2.8-8.3-7.4-9.4-.5-.1-.6-1.1-.1-1.3,4.9-2.2,7.6-6.3,7.6-12C250.7,5,244.2,0,231.1,0h-35c-.5,0-.9.4-.9.9v46.2h0ZM211.7,21.9c-.5,0-.9-.4-.9-.9v-7.4c0-.5.4-.9.9-.9h15.8c4.2,0,7,.7,7,4.6s-2.8,4.7-7,4.7h-15.8Z"/>
  <path class="st0" d="M117.8,47.1c0,.5.4.9.9.9h13.7c.5,0,.9-.4.9-.9v-16.8c0-.5.4-.9.9-.9h27.2c.5,0,.9-.4.9-.9v-9.2c0-.5-.4-.9-.9-.9h-27.2c-.5,0-.9-.4-.9-.9v-4.7c0-.5.4-.9.9-.9h31.2c.5,0,.9-.4.9-.9V.9C166.3.4,165.9,0,165.4,0h-46.8c-.5,0-.9.4-.9.9v46.2h.1Z"/>
  <path class="st0" d="M54.9,0c.5,0,.9.4.9.9v1c0,3.5-.9,7.2-2.8,11.1-1.8,4-4.7,7.6-8.7,11-3.9,3.3-8.9,6.1-15,8.4-6.1,2.2-13.4,3.3-21.9,3.3h47.4c.5,0,.9.4.9.9v10.4c0,.5-.4.9-.9.9H.8c-.4,0-.8-.3-.8-.8v-10.5c0-.5.4-.9.9-.9,2.9,0,5.8-.5,8.6-1.2,3.1-.9,6.1-2,8.8-3.4,2.8-1.3,5.4-2.9,7.7-4.6,2.4-1.7,4.5-3.5,6.2-5.2s3-3.4,4-5c.7-1.2,1.1-2.2,1.3-3.1,0-.5-.3-.9-.8-.9H.9c-.5,0-.9-.4-.9-.9V.9C0,.4.4,0,.9,0h54Z"/>
</svg>