<?xml version="1.0" encoding="UTF-8"?>
<svg id="Calque_1" xmlns="http://www.w3.org/2000/svg" version="1.1" viewBox="0 0 907 190">
  <!-- Generator: Adobe Illustrator 29.8.2, SVG Export Plug-In . SVG Version: 2.1.1 Build 3)  -->
  <defs>
    <style>
      .st0 {
        fill: #fff;
      }
    </style>
  </defs>
  <path class="st0" d="M0,83.5c0,19.5,13.5,42.8,40.1,69.3,19,18.9,37.8,32.5,38.6,33.1l5.1,3.7,5.1-3.7c.8-.6,19.6-14.1,38.6-33,26.6-26.5,40.1-49.8,40.1-69.3C167.7,37.4,130.1,0,83.9,0S0,37.4,0,83.5ZM83.9,17.4c18.9,0,35.9,7.9,48,20.5-4.3-1.1-8.8-1.7-13.3-1.7-13.8,0-26.4,5.3-34.7,14.1-8.4-8.8-20.9-14.1-34.7-14.1s-9.1.6-13.3,1.7c12.1-12.6,29.1-20.5,48-20.5h0ZM17.5,83.5c0-3.4.3-6.6.7-9.9.4-1.2.9-2.4,1.5-3.7,5.4-10.9,16.3-17.4,29.3-17.4,22,0,30.2,16.9,34.7,24.2,4.8-7.8,13.8-24.2,34.7-24.2s24,6.5,29.3,17.4c.6,1.2,1.1,2.4,1.5,3.7.5,3.2.7,6.5.7,9.9,0,27.8-43.9,67.2-66.3,84.4-22.4-17.2-66.3-56.5-66.3-84.4h0Z"/>
  <path class="st0" d="M222.9,162.7V23h22.2v62.3h.5c7.3-9,17.3-13.5,30.2-13.5s22.9,4.4,30.9,13.3,12,20,12,33.3-4,24.6-11.9,33.4c-7.9,8.8-18.6,13.3-31.9,13.3s-24.2-5.2-30.5-15.5h-.4v13.3h-21.1ZM244.4,118.4c0,7.3,2.4,13.5,7.1,18.7,4.8,5.2,11.1,7.9,19,7.9s14.2-2.6,18.9-7.9c4.7-5.2,7.1-11.5,7.1-18.7s-2.4-13.5-7.1-18.7c-4.7-5.2-11-7.9-18.9-7.9s-14.2,2.6-19,7.9c-4.8,5.2-7.1,11.5-7.1,18.7h0ZM353.8,162.7v-88.7h22.2v88.7h-22.2ZM411.1,118.4c0-13.7,4.6-24.9,13.9-33.6,9.2-8.7,20.7-13,34.5-13s22.6,4.3,30.2,12.8c7.6,8.5,11.3,20.4,11.3,35.5v6h-67.6c.7,6.4,3.3,11.5,7.8,15.3,4.5,3.9,9.8,5.8,16.1,5.8,9.4,0,17.3-4,23.8-12l15.9,12c-9.6,11.9-22.1,17.8-37.5,17.8s-25.1-4.3-34.4-13c-9.3-8.7-13.9-19.9-13.9-33.6h0ZM433.3,109.5h45.5c-.1-6.6-2.2-11.7-6.2-15.4-4-3.7-9.5-5.6-16.4-5.6s-11.6,1.9-15.6,5.6c-4,3.7-6.5,8.9-7.3,15.4ZM535.7,162.7v-88.7h21.1v14.3h.4c5.1-11,14.1-16.5,27.2-16.5,11.1,0,19.2,3.3,24.5,9.9,5.2,6.6,7.9,15,7.9,25v56.1h-22.1v-45c0-3.2-.2-6-.5-8.4-.3-2.4-.9-5.1-1.9-8.1-.9-3-2.5-5.3-4.9-7s-5.4-2.5-9.1-2.5c-6.9,0-12,2.1-15.4,6.4-3.3,4.2-5,9.6-5,16.1v48.5h-22.2ZM364.9,57.9c7.7,0,14-6.3,14-14s-6.3-14-14-14-14,6.3-14,14,6.3,14,14,14h0ZM655.5,69.1c.6-1.5,1.1-3,1.3-4.5.2-1.5.2-2.8-.2-4s-1.2-2.3-2.4-3.1c-2.5-1.7-4.5-3.8-6.1-6.2s-2.2-5.2-1.8-8.3c.2-1.9.8-3.7,1.7-5.3.9-1.6,2.1-3,3.5-4.1,1.4-1.1,3-1.9,4.8-2.4,1.8-.5,3.7-.6,5.6-.4,3.8.5,6.9,2.2,9.2,5.3,2.3,3.1,3.3,6.5,3,10.4-.2,4.1-1.2,7.8-3,11.1-1.8,3.3-3.8,6.2-6,8.6-2.2,2.4-4.3,4.3-6.3,5.8-2,1.4-4.1-1.2-3.4-2.7h0Z"/>
  <path class="st0" d="M716.2,162.7v-88.7h22.2v88.7h-22.2ZM773.6,118.4c0-13.7,4.6-24.9,13.9-33.6,9.2-8.7,20.7-13,34.5-13s24,4.5,32.1,13.5l-15.4,15.3c-5.7-5.9-11.3-8.8-16.8-8.8-7.9,0-14.2,2.6-19,7.9-4.8,5.2-7.1,11.5-7.1,18.7s2.4,13.5,7.1,18.7c4.8,5.2,11.1,7.9,19,7.9s13-2.8,17.2-8.3l14.8,15.9c-4.1,4.1-9.2,7.2-15.4,9.3-6.2,2.1-11.7,3.2-16.5,3.2-13.7,0-25.1-4.3-34.4-13-9.3-8.7-13.9-19.9-13.9-33.6h0ZM878.5,43.9c0-3.6,1.4-6.7,4.1-9.3,2.7-2.6,6-4,9.9-4s7.5,1.3,10.3,3.8c2.8,2.5,4.2,5.7,4.2,9.5s-1.4,7-4.2,9.5c-2.8,2.5-6.2,3.8-10.3,3.8s-7.3-1.3-10-4-4-5.8-4-9.3ZM881.5,162.7v-88.7h22.2v88.7h-22.2ZM726.3,57.9c7.7,0,14-6.3,14-14s-6.3-14-14-14-14,6.3-14,14,6.3,14,14,14h0Z"/>
</svg>