<?xml version="1.0" encoding="UTF-8"?>
<svg id="Calque_1" xmlns="http://www.w3.org/2000/svg" version="1.1" viewBox="0 0 93 22">
  <!-- Generator: Adobe Illustrator 29.8.2, SVG Export Plug-In . SVG Version: 2.1.1 Build 3)  -->
  <defs>
    <style>
      .st0 {
        fill: #fff;
      }
    </style>
  </defs>
  <path class="st0" d="M80.5,5.1h3.6l-.4,1.8c.8-1.4,2.2-2.1,3.6-2.1s.8,0,1.1.2l-1.4,3.3c-.3,0-.5-.1-.9-.1-1.7,0-2.9,1.2-3.4,3.4l-1.2,5.3h-3.6s2.7-11.7,2.7-11.7ZM76.2,9.5c0-1.5-1.1-2.1-2.6-2.1s-2.8.8-3.4,2.1c0,0,5.9,0,5.9,0ZM73.7,4.8c3.4,0,5.2,1.9,5.2,4.5s-.2,1.8-.5,2.6h-8.6c0,1.5.9,2.3,2.4,2.3s2.3-.5,2.6-1.2l3.1.6c-1.2,2.5-3.3,3.6-6.1,3.6s-5.4-2.2-5.3-5.5c.1-3.6,3-6.9,7.2-6.9M59.6,13.5c1.7,0,3-1.5,3-3.3,0-1.4-1-2.2-2.2-2.2-2,0-3.1,1.6-3.2,3.2,0,1.6,1.1,2.3,2.3,2.3M52.9,18l3.5-.7c0,1.4.6,1.9,1.8,1.9,1.7,0,2.8-1,3.2-2.7l.3-1.4c-.7.9-1.6,1.5-3.2,1.5-2.6,0-4.9-1.8-4.8-5.1.1-3.6,2.7-6.7,6.8-6.7s2.6.7,3.2,1.5l.3-1.2h3.6l-2.6,11.1c-1,4.2-3.4,5.7-7.2,5.7s-5-1.3-5-4M46.4,13.8c1.8,0,3.3-1.3,3.3-3.2,0-1.5-1-2.4-2.6-2.4s-3.2,1.6-3.2,3.1c0,1.6,1.2,2.5,2.5,2.5M47.8,4.8c3.4,0,5.8,2,5.7,5.6-.1,4-3.2,6.8-7.6,6.8s-5.7-2.3-5.6-5.3c.2-4,3.1-7,7.5-7M33.9.3h3.8l-3,13h5.4l-.8,3.5h-9.2L33.9.3ZM27.7,9.5c-.3-1.5-1.4-2.2-2.9-2.2s-2.5.8-3,2.2h5.9ZM24.9,4.8c3.5,0,5.8,2.6,5.8,5.9v1.2h-8.7c.2,1.5,1.4,2.3,2.8,2.3s2.2-.5,2.4-1.3h3.3c-.7,3-2.9,4.3-5.9,4.3s-6-2.5-6-6.2c0-3.7,2.7-6.2,6.3-6.2M8.5,11.4c.2,1.1,1.1,2.4,3.4,2.4s2.5-.7,2.5-1.7-1.2-2-3.7-2.4c-3.3-.6-5.2-2.2-5.2-5C5.5,1.9,7.9,0,11.5,0s5.9,1.4,6.8,5.2h-3.8c-.2-1-1.2-2.1-3.1-2.1s-2.4.6-2.4,1.6.9,1.5,3.9,2.2c3.6.8,5.3,2.3,5.3,5s-2.2,5.3-6.2,5.3-6.8-2.3-7.3-5.8h3.8Z"/>
</svg>