<?xml version="1.0" encoding="UTF-8"?>
<svg id="Calque_1" xmlns="http://www.w3.org/2000/svg" version="1.1" viewBox="0 0 144 67">
  <!-- Generator: Adobe Illustrator 29.8.2, SVG Export Plug-In . SVG Version: 2.1.1 Build 3)  -->
  <defs>
    <style>
      .st0 {
        fill: #fff;
      }
    </style>
  </defs>
  <path class="st0" d="M3,24.7c-.5,0-1,.2-1.4.6-.4.4-.5.8-.5,1.3v14.1c0,.5.2,1,.5,1.3.4.4.8.5,1.4.5s.9-.2,1.3-.5c.4-.4.5-.8.5-1.3v-14.1c0-.5-.2-.9-.5-1.3-.4-.4-.8-.6-1.3-.6Z"/>
  <path class="st0" d="M48.2,26.3c-.5-.5-1.1-.9-1.8-1.2-.7-.3-1.4-.4-2.2-.4h0c-.7,0-1.4.1-2,.4-.6.3-1.2.6-1.8,1-.5-.4-1.1-.8-1.8-1.1-.6-.3-1.3-.4-2-.4-.8,0-1.5.2-2.2.5-.7.3-1.3.7-1.8,1.3-.5.5-.9,1.1-1.2,1.8-.3.7-.4,1.4-.4,2.1v10.3c0,.5.2,1,.5,1.4.4.4.8.5,1.3.5s1-.2,1.4-.5c.4-.4.5-.8.5-1.4v-10.1c0-.5.2-1,.5-1.4.4-.4.8-.5,1.3-.5s1,.2,1.4.5c.4.4.5.8.5,1.4v10.1c0,.5.2,1,.5,1.4.4.4.8.5,1.3.5s1-.2,1.3-.5c.4-.4.5-.8.5-1.4v-10.1c0-.5.2-1,.6-1.4.4-.4.8-.5,1.4-.5.5,0,1,.2,1.3.5.4.4.6.8.6,1.4v10.1c0,.5.2,1,.5,1.4.4.4.8.5,1.4.5.5,0,1-.2,1.3-.5.4-.4.6-.8.6-1.4v-10.3c0-.8-.2-1.5-.5-2.2-.3-.7-.7-1.3-1.2-1.8Z"/>
  <path class="st0" d="M64.9,26.5c-.6-.6-1.4-1.1-2.2-1.4-.8-.3-1.7-.5-2.6-.5s-1.9.2-2.8.5c-.8.3-1.5.8-2.2,1.5-1.3,1.3-2,3-2,4.8v4.6c0,.9.2,1.8.6,2.6.4.8.9,1.5,1.5,2.1.6.6,1.4,1.1,2.2,1.4.8.3,1.7.5,2.6.5,1.8,0,3.6-.7,4.9-2,.6-.6,1.1-1.4,1.4-2.2.3-.8.5-1.7.5-2.6v-4.6c0-.9-.2-1.8-.6-2.6-.4-.8-.9-1.5-1.5-2.1ZM63.3,35.9c0,.4,0,.8-.3,1.2-.2.4-.4.7-.7,1-.3.3-.6.5-1,.6-.4.2-.8.2-1.2.2-.9,0-1.7-.3-2.3-.9-.3-.3-.5-.6-.7-1-.2-.4-.2-.8-.2-1.2v-4.5c0-.4,0-.8.3-1.2.2-.4.4-.7.7-1,.3-.3.6-.5,1-.6.4-.2.8-.2,1.2-.2.4,0,.9,0,1.3.3.4.2.7.4,1,.7.3.3.5.6.7,1,.2.4.2.8.2,1.2v4.5Z"/>
  <path class="st0" d="M25.7,26.3c-.5-.5-1.1-.9-1.8-1.2-.7-.3-1.4-.4-2.2-.4h0c-.7,0-1.4.1-2,.4-.6.3-1.2.6-1.8,1-.5-.4-1.1-.8-1.8-1.1-.6-.3-1.3-.4-2-.4-.8,0-1.5.2-2.2.5-.7.3-1.3.7-1.8,1.3-.5.5-.9,1.1-1.2,1.8-.3.7-.4,1.4-.4,2.1v10.3c0,.5.2,1,.5,1.4.4.4.8.5,1.3.5s1-.2,1.4-.5.5-.8.5-1.4v-10.1c0-.5.2-1,.5-1.4.4-.4.8-.5,1.3-.5s1,.2,1.4.5c.4.4.5.8.5,1.4v10.1c0,.5.2,1,.5,1.4.4.4.8.5,1.3.5s1-.2,1.3-.5c.4-.4.5-.8.5-1.4v-10.1c0-.5.2-1,.6-1.4.4-.4.8-.5,1.4-.5.5,0,1,.2,1.3.5.4.4.6.8.6,1.4v10.1c0,.5.2,1,.5,1.4.4.4.8.5,1.4.5.5,0,1-.2,1.3-.5.4-.4.6-.8.6-1.4v-10.3c0-.8-.2-1.5-.5-2.2-.3-.7-.7-1.3-1.2-1.8Z"/>
  <path class="st0" d="M108.4,24.7c-.5,0-1,.2-1.3.5-.4.3-.5.7-.5,1.2v9.3c0,.4,0,.8-.2,1.2-.2.4-.4.7-.7,1-.3.3-.6.5-1,.7-.4.2-.8.3-1.3.3s-.8,0-1.2-.2c-.4-.2-.7-.4-1-.6-.3-.3-.5-.6-.7-1-.2-.4-.3-.8-.3-1.2v-9.4c0-.5-.2-.9-.6-1.3-.4-.4-.8-.5-1.3-.5s-.9.2-1.3.5c-.4.3-.6.7-.6,1.2v9.3c0,.9.2,1.8.5,2.6.3.8.8,1.5,1.4,2.2.6.6,1.3,1.1,2.2,1.5.8.4,1.7.5,2.7.5.9,0,1.8-.2,2.6-.5,1.6-.6,2.9-1.9,3.7-3.5.4-.8.6-1.7.6-2.6v-9.4c0-.5-.2-.9-.5-1.3-.3-.4-.8-.5-1.3-.6Z"/>
  <path class="st0" d="M125.2,26.6c-.6-.6-1.3-1-2.2-1.4-.8-.3-1.7-.5-2.6-.5h0c-1,0-1.9.2-2.7.5-.8.3-1.5.8-2.2,1.5-.6.6-1.1,1.4-1.4,2.2-.3.8-.5,1.7-.5,2.6v9.3c0,.5.2.9.6,1.2.4.3.8.5,1.3.5s.9-.2,1.3-.5.6-.8.6-1.3v-9.4c0-.4,0-.8.3-1.2.2-.4.4-.7.7-1,.3-.3.6-.5,1-.6.4-.2.8-.2,1.2-.2.4,0,.9,0,1.3.3.4.2.7.4,1,.7.3.3.5.6.7,1,.2.4.2.8.2,1.2v9.3c0,.5.2.9.6,1.2.4.3.8.5,1.3.5.5,0,.9-.2,1.3-.6.3-.4.5-.8.5-1.3v-9.4c0-.9-.2-1.8-.6-2.6-.4-.8-.9-1.5-1.5-2.1Z"/>
  <path class="st0" d="M91.2,28.4c.5,0,1-.2,1.3-.5.4-.4.5-.8.5-1.3s-.2-1-.5-1.3c-.4-.4-.8-.6-1.3-.6h-8.1c-.5,0-1,.2-1.4.6-.4.4-.5.8-.5,1.3v14.1c0,.5.2,1,.6,1.4.4.4.8.5,1.3.5h8.1c.5,0,1-.2,1.3-.5.4-.4.5-.8.5-1.4s-.2-.9-.5-1.3c-.4-.4-.8-.6-1.3-.6h-6.2v-3.4h4.3c.5,0,1-.2,1.3-.5.4-.4.6-.8.6-1.3s-.2-1-.6-1.3c-.4-.4-.8-.6-1.3-.6h-4.3v-3.2h6.2Z"/>
  <path class="st0" d="M75.9,24.7c-.5,0-1,.2-1.3.6-.4.4-.5.8-.5,1.3v9.6c0,.3,0,.7-.2,1-.1.3-.3.6-.6.8-.2.2-.5.4-.8.5-.3.1-.7.2-1,.2-.5,0-1,.2-1.3.6-.4.4-.6.8-.6,1.3s.2,1,.6,1.3c.4.4.8.5,1.3.5.9,0,1.7-.2,2.5-.5.8-.3,1.4-.8,2-1.4.6-.6,1-1.2,1.4-2,.3-.8.5-1.6.5-2.5v-9.6c0-.5-.2-.9-.6-1.3s-.8-.6-1.4-.6Z"/>
  <path class="st0" d="M140.7,38.8h-6.2v-3.4h4.3c.5,0,1-.2,1.3-.5.4-.4.6-.8.6-1.3s-.2-1-.6-1.3c-.4-.4-.8-.6-1.3-.6h-4.3v-3.2h6.2c.5,0,1-.2,1.3-.5.4-.4.5-.8.5-1.3s-.2-1-.5-1.3c-.4-.4-.8-.6-1.3-.6h-8.1c-.5,0-1,.2-1.4.6-.4.4-.5.8-.5,1.3v14.1c0,.5.2,1,.6,1.4.4.4.8.5,1.3.5h8.1c.5,0,1-.2,1.3-.5.4-.4.5-.8.5-1.4s-.2-.9-.5-1.3c-.4-.4-.8-.6-1.3-.6Z"/>
</svg>