<?xml version="1.0" encoding="UTF-8"?>
<svg id="Calque_1" xmlns="http://www.w3.org/2000/svg" version="1.1" viewBox="0 0 180 65">
  <!-- Generator: Adobe Illustrator 29.8.2, SVG Export Plug-In . SVG Version: 2.1.1 Build 3)  -->
  <defs>
    <style>
      .st0 {
        fill: #fff;
      }
    </style>
  </defs>
  <path class="st0" d="M6.7,26.1h2.1c1.2,0,1.7,1,1.7,3.1s-.5,3.1-1.7,3.1h-2.1v-6.2ZM.2,47.8h6.5v-7h4.3c4.1,0,6-5.8,6-12.2s-.6-11.4-5.3-11.4H.2v30.6Z"/>
  <path class="st0" d="M26,30.8c1.2,0,1.9,1.6,1.9,5.3s-.7,5.1-1.9,5.1-1.9-1.5-1.9-5.1c0-3.8.7-5.3,1.9-5.3M27.7,47.8h5.8v-25.9h-5.8v3.9h0c-1-3.4-2.4-4.3-4.1-4.3-3.8,0-5.3,4.9-5.3,13.5s1.7,13.7,5.5,13.7,3.2-.8,3.8-3.9h0v3.1h0Z"/>
  <path class="st0" d="M34.7,21.8h5.6v7.4h0c.5-4.8.9-7.8,3.2-7.8s1.2.1,1.7.3v14.3h-1.8c-1.9,0-2.6,1.2-2.6,4.6v7.2h-6.1v-25.9h0Z"/>
  <path class="st0" d="M61.6,38c0,6.1-1.2,10.7-7.3,10.7s-7.3-4.6-7.3-10.7v-16.2h6v15.8c0,1.7.4,3,1.3,3s1.3-1.4,1.3-3v-15.8h6v16.2h0s0,0,0,0Z"/>
  <polygon class="st0" points="62.7 17.2 69.4 17.2 71.5 36.3 71.5 36.3 73.5 17.2 80.1 17.2 76.1 47.8 66.8 47.8 62.7 17.2"/>
  <path class="st0" d="M86.2,31.6c0-3,.8-4.1,1.9-4.1s1.7,1.4,1.7,4.1h-3.7ZM94.8,37.9v-2.3c0-10.4-1.5-14.6-7.5-14.6s-7.2,5.2-7.2,14.4,3.1,13.3,7.2,13.3,3.9-.8,6.2-2.1l1.2-7.1c-2.2,1.2-4.2,2.2-5.7,2.2s-2.6-.5-2.6-3.7h8.4Z"/>
  <path class="st0" d="M96.8,21.8h5.6v5.1h0c1.1-3.4,2.5-5.4,4.8-5.4s4.8,1.2,4.8,9.7v16.6h-6v-12c0-3.1-.5-4.2-1.6-4.2s-1.6,1-1.6,3.3v12.9h-6v-25.9h0Z"/>
  <path class="st0" d="M121.8,30.8c1.3,0,2,1.6,2,5.3s-.7,5.1-2,5.1-1.9-1.5-1.9-5.1c0-3.8.7-5.3,1.9-5.3M123.6,47.8h5.9v-30.7h-5.9v8.6h0c-1-3.4-2.5-4.3-4.1-4.3-3.8,0-5.4,4.9-5.4,13.5s1.7,13.7,5.7,13.7,3.2-.8,3.9-3.9h0s0,3.1,0,3.1Z"/>
  <path class="st0" d="M145.9,38c0,6.1-1.1,10.7-7.2,10.7s-7.2-4.6-7.2-10.7v-16.2h6v15.8c0,1.7.4,3,1.3,3s1.3-1.4,1.3-3v-15.8h6v16.2h0Z"/>
  <circle class="st0" cx="151.3" cy="44.3" r="3.5"/>
  <path class="st0" d="M158,37.7h-1.5v-6.5h1.5v-3.9c0-4.2,1-6.4,5.7-6.4s3,.1,4.4.5v6.8c-.6-.2-1.2-.3-1.9-.3-1.3,0-2,.4-2,2.1v1.2h3.8v6.5h-3.8v10.1h-6.2v-10.1h0Z"/>
  <path class="st0" d="M169.7,31h5.5v4.3h0c.4-4,.9-4.6,3.2-4.6s1.2.1,1.7.2v7.2h-1.8c-1.9,0-2.6.9-2.6,3.8v5.9h-6.1v-16.8h0Z"/>
</svg>